<svg width="38" height="24" viewBox="0 0 38 24" fill="none" xmlns="http://www.w3.org/2000/svg">
<path d="M5.88801 10.272H16.224V15.168H5.88801V10.272ZM6.33601 22.848H9.77516e-06V0.447998H17.568V5.344H6.33601V22.848ZM27.1233 23.296C25.2886 23.296 23.5179 23.072 21.8113 22.624C20.1259 22.1547 18.7499 21.5573 17.6833 20.832L19.7633 16.16C20.7659 16.8 21.9179 17.3333 23.2193 17.76C24.5419 18.1653 25.8539 18.368 27.1553 18.368C28.0299 18.368 28.7339 18.2933 29.2673 18.144C29.8006 17.9733 30.1846 17.76 30.4193 17.504C30.6753 17.2267 30.8033 16.9067 30.8033 16.544C30.8033 16.032 30.5686 15.6267 30.0993 15.328C29.6299 15.0293 29.0219 14.784 28.2753 14.592C27.5286 14.4 26.6966 14.208 25.7793 14.016C24.8833 13.824 23.9766 13.5787 23.0593 13.28C22.1633 12.9813 21.3419 12.5973 20.5953 12.128C19.8486 11.6373 19.2406 11.008 18.7713 10.24C18.3019 9.45067 18.0673 8.45867 18.0673 7.264C18.0673 5.92 18.4299 4.704 19.1553 3.616C19.9019 2.528 21.0113 1.65333 22.4833 0.991999C23.9553 0.330665 25.7899 -1.90735e-06 27.9873 -1.90735e-06C29.4593 -1.90735e-06 30.8993 0.170665 32.3073 0.511999C33.7366 0.831999 35.0059 1.312 36.1153 1.952L34.1633 6.656C33.0966 6.08 32.0406 5.65333 30.9953 5.376C29.9499 5.07733 28.9366 4.928 27.9553 4.928C27.0806 4.928 26.3766 5.024 25.8433 5.216C25.3099 5.38667 24.9259 5.62133 24.6913 5.92C24.4566 6.21866 24.3393 6.56 24.3393 6.944C24.3393 7.43467 24.5633 7.82933 25.0113 8.128C25.4806 8.40533 26.0886 8.64 26.8353 8.832C27.6033 9.00267 28.4353 9.184 29.3313 9.376C30.2486 9.568 31.1553 9.81333 32.0513 10.112C32.9686 10.3893 33.8006 10.7733 34.5473 11.264C35.2939 11.7333 35.8913 12.3627 36.3393 13.152C36.8086 13.92 37.0433 14.8907 37.0433 16.064C37.0433 17.3653 36.6699 18.5707 35.9233 19.68C35.1979 20.768 34.0993 21.6427 32.6273 22.304C31.1766 22.9653 29.3419 23.296 27.1233 23.296Z" fill="#484A4F"/>
</svg>
