<svg width="28" height="28" viewBox="0 0 28 28" fill="none" xmlns="http://www.w3.org/2000/svg">
<g filter="url(#filter0_d_644_224)">
<path d="M15.0859 0.5L15.7285 2.625L15.8057 2.88184L16.0635 2.95898C16.5755 3.11195 17.0691 3.32151 17.5352 3.58301L17.7744 3.7168L18.0156 3.58789L19.9863 2.5332L21.4854 4.03906L20.4258 6.02441L20.2988 6.26172L20.4268 6.49805C20.6761 6.95962 20.8751 7.44683 21.0195 7.95117L21.0947 8.21387L21.3574 8.29297L23.4805 8.92578V11.0742L21.3047 11.7207L21.0439 11.7979L20.9668 12.0586C20.8208 12.5544 20.6228 13.0337 20.375 13.4873L20.2451 13.7246L20.3721 13.9629L21.4453 15.9668L19.9463 17.4658L17.9355 16.3926L17.6982 16.2656L17.4619 16.3936C17.01 16.6388 16.5325 16.836 16.0391 16.9805L15.7783 17.0566L15.7002 17.3184L15.0557 19.5H12.9443L12.2998 17.3242L12.2217 17.0625L11.959 16.9863L11.5889 16.8691C11.2223 16.7417 10.8663 16.5849 10.5244 16.4004L10.2881 16.2725L10.0508 16.3994L8.05273 17.4658L6.55371 15.9668L7.61621 13.9316L7.74219 13.6904L7.6084 13.4541C7.34818 12.994 7.1396 12.5066 6.98535 12.001L6.90723 11.7451L6.65039 11.668L4.5 11.0215V8.91016L6.6377 8.26562L6.89551 8.1875L6.97266 7.92871C7.12524 7.41458 7.33483 6.9192 7.59668 6.45117L7.73047 6.21094L7.59961 5.96875L6.55371 4.0332L8.07812 2.54688L10.0156 3.59375L10.2568 3.72363L10.4971 3.58984C10.9671 3.32755 11.4651 3.11894 11.9814 2.9668L12.2402 2.88965L12.3184 2.63184L12.9648 0.5H15.0859ZM15.6143 6.15039C14.853 5.83513 14.0152 5.75234 13.207 5.91309C12.3988 6.07386 11.656 6.47099 11.0732 7.05371C10.4906 7.6364 10.0943 8.37933 9.93359 9.1875C9.77288 9.99568 9.85556 10.8334 10.1709 11.5947C10.4863 12.356 11.0199 13.0071 11.7051 13.4648C12.3901 13.9226 13.1956 14.1669 14.0195 14.167C15.1245 14.167 16.1844 13.7276 16.9658 12.9463C17.7472 12.1649 18.1865 11.1051 18.1865 10C18.1865 9.17602 17.9421 8.37068 17.4844 7.68555C17.0265 7.00034 16.3756 6.46576 15.6143 6.15039Z" stroke="black" shape-rendering="crispEdges"/>
</g>
<defs>
<filter id="filter0_d_644_224" x="0" y="0" width="27.9805" height="28.0001" filterUnits="userSpaceOnUse" color-interpolation-filters="sRGB">
<feFlood flood-opacity="0" result="BackgroundImageFix"/>
<feColorMatrix in="SourceAlpha" type="matrix" values="0 0 0 0 0 0 0 0 0 0 0 0 0 0 0 0 0 0 127 0" result="hardAlpha"/>
<feOffset dy="4"/>
<feGaussianBlur stdDeviation="2"/>
<feComposite in2="hardAlpha" operator="out"/>
<feColorMatrix type="matrix" values="0 0 0 0 0 0 0 0 0 0 0 0 0 0 0 0 0 0 0.25 0"/>
<feBlend mode="normal" in2="BackgroundImageFix" result="effect1_dropShadow_644_224"/>
<feBlend mode="normal" in="SourceGraphic" in2="effect1_dropShadow_644_224" result="shape"/>
</filter>
</defs>
</svg>
